<svg aria-hidden="true" style="position: absolute; width: 0; height: 0; overflow: hidden;" version="1.1" xmlns="http://www.w3.org/2000/svg" xmlns:xlink="http://www.w3.org/1999/xlink">
<defs>
<symbol id="icon-ae" viewBox="0 0 32 32">
<path fill="#000" style="fill: var(--color1, #000)" d="M1.511 1.36h29.397v29.125h-29.397v-29.125z"></path>
<path fill="#d8a1ff" style="fill: var(--color2, #d8a1ff)" d="M1.511 1.36h29.397v29.125h-29.397v-29.125zM0.175 31.846h32.075v-31.846h-32.075v31.846zM22.867 15.351c0.681 0 0.925 0 0.989-0.026 0-0.098 0.026-0.164 0.026-0.229 0-0.733-0.347-2.093-1.734-2.093-1.285 0-1.83 1.145-1.965 2.355h2.685v-0.007zM20.156 17.215c0.026 1.838 0.88 3.074 2.916 3.074 0.79 0 1.471-0.111 2.177-0.419 0.096-0.039 0.161-0.026 0.161 0.098v1.701c0 0.137-0.039 0.203-0.135 0.275-0.707 0.353-1.593 0.517-2.685 0.517-3.526 0-4.849-2.655-4.849-5.605 0-3.211 1.631-5.841 4.502-5.841 2.916 0 3.931 2.492 3.931 4.52 0 0.654-0.038 1.184-0.109 1.445-0.026 0.111-0.064 0.15-0.173 0.177-0.27 0.039-1.053 0.098-2.229 0.098h-3.5v-0.039h-0.006zM12.988 15.828c-0.373-1.511-1.285-4.801-1.619-6.397h-0.026c-0.283 1.589-1.015 4.284-1.561 6.397h3.205zM9.238 18.032l-1.053 4.068c-0.026 0.111-0.064 0.15-0.199 0.15h-1.972c-0.135 0-0.161-0.039-0.135-0.203l3.796-13.513c0.064-0.242 0.109-0.438 0.135-1.118 0-0.098 0.039-0.137 0.109-0.137h2.807c0.096 0 0.135 0.026 0.161 0.137l4.245 14.658c0.026 0.111 0 0.177-0.109 0.177h-2.203c-0.109 0-0.173-0.039-0.199-0.137l-1.098-4.081h-4.284z"></path>
</symbol>
<symbol id="icon-ai" viewBox="0 0 32 32">
<path fill="#000" style="fill: var(--color1, #000)" d="M1.511 1.36h29.397v29.125h-29.397v-29.125z"></path>
<path fill="#ff7f18" style="fill: var(--color3, #ff7f18)" d="M1.511 1.36h29.397v29.125h-29.397v-29.125zM0.175 31.846h32.075v-31.846h-32.075v31.846zM21.184 11.354c0-0.111 0.039-0.164 0.161-0.164h2.1c0.109 0 0.161 0.039 0.161 0.164v10.74c0 0.111-0.026 0.164-0.161 0.164h-2.075c-0.135 0-0.173-0.065-0.173-0.177v-10.727h-0.013zM21.036 8.261c0-0.87 0.604-1.387 1.362-1.387 0.816 0 1.362 0.556 1.362 1.387 0 0.896-0.572 1.387-1.387 1.387-0.771 0.007-1.336-0.484-1.336-1.387zM15.024 15.828c-0.373-1.511-1.259-4.801-1.593-6.397h-0.026c-0.283 1.589-0.989 4.284-1.548 6.397h3.166zM11.312 18.032l-1.053 4.081c-0.026 0.111-0.064 0.137-0.199 0.137h-1.965c-0.135 0-0.161-0.039-0.135-0.203l3.796-13.526c0.064-0.242 0.109-0.464 0.135-1.132 0-0.098 0.039-0.137 0.109-0.137h2.807c0.096 0 0.135 0.026 0.161 0.137l4.252 14.684c0.026 0.111 0 0.177-0.109 0.177h-2.216c-0.109 0-0.173-0.026-0.199-0.124l-1.098-4.094h-4.284z"></path>
</symbol>
<symbol id="icon-behance" viewBox="0 0 32 32">
<path stroke-linejoin="miter" stroke-linecap="butt" stroke-miterlimit="4" stroke-width="0.3902" d="M26.72 0.169h-22.134c-2.529 0-4.586 2.051-4.586 4.573v22.073c0 2.522 2.057 4.573 4.586 4.573h22.134c2.529 0 4.586-2.052 4.586-4.573v-22.073c0-2.522-2.057-4.573-4.586-4.573zM29.472 26.816c0 1.513-1.234 2.744-2.752 2.744h-22.134c-1.517 0-2.752-1.231-2.752-2.744v-22.073c0-1.513 1.234-2.744 2.752-2.744h22.134c1.517 0 2.752 1.231 2.752 2.744v22.073z"></path>
<path stroke-linejoin="miter" stroke-linecap="butt" stroke-miterlimit="4" stroke-width="0.3902" d="M14.736 13.035c0-2.017-1.646-3.659-3.669-3.659h-5.503v12.805h5.503c2.023 0 3.669-1.641 3.669-3.659 0-1.092-0.483-2.073-1.246-2.744 0.763-0.671 1.246-1.652 1.246-2.744zM12.902 18.523c0 1.009-0.823 1.829-1.834 1.829h-3.669v-3.659h3.669c1.011 0 1.834 0.821 1.834 1.829zM7.399 14.864v-3.659h3.669c1.011 0 1.834 0.821 1.834 1.829s-0.823 1.829-1.834 1.829h-3.669z"></path>
<path stroke-linejoin="miter" stroke-linecap="butt" stroke-miterlimit="4" stroke-width="0.3902" d="M21.156 13.035c-2.529 0-4.586 2.051-4.586 4.573s2.057 4.573 4.586 4.573c1.632 0 3.154-0.876 3.972-2.286l-1.588-0.916c-0.491 0.847-1.405 1.373-2.384 1.373-1.196 0-2.216-0.765-2.594-1.829h7.18v-0.915c0-2.522-2.057-4.573-4.586-4.573zM18.562 16.694c0.379-1.065 1.398-1.829 2.594-1.829s2.216 0.765 2.594 1.829h-5.189z"></path>
<path stroke-linejoin="miter" stroke-linecap="butt" stroke-miterlimit="4" stroke-width="0.3902" d="M17.487 9.377h7.337v1.829h-7.337v-1.829z"></path>
</symbol>
<symbol id="icon-dribble" viewBox="0 0 31 32">
<path stroke-linejoin="miter" stroke-linecap="butt" stroke-miterlimit="4" stroke-width="0.7805" d="M23.933 6.167l0.239-0.3-0.296-0.244c-2.275-1.879-5.165-3.001-8.327-3.001-1.108 0-2.182 0.155-3.198 0.409l-0.568 0.142 0.349 0.47c1.085 1.46 2.645 3.665 4.512 7.119l0.161 0.298 0.318-0.118c3.534-1.312 5.651-3.319 6.81-4.776zM10.43 4.015l-0.191-0.252-0.286 0.135c-3.509 1.655-6.168 4.817-7.217 8.678l-0.13 0.477 0.494 0.016c1.932 0.061 6.551-0.030 11.67-1.401l0.483-0.129-0.242-0.437c-1.985-3.578-3.655-5.867-4.58-7.086zM25.613 7.339l-0.303-0.36-0.298 0.364c-1.293 1.578-3.537 3.627-7.090 5.017l-0.395 0.155 0.187 0.381c0.766 1.56 1.509 3.221 2.186 5.016l0.112 0.296 0.312-0.048c2.57-0.392 4.946-0.392 6.741-0.252 0.436 0.036 0.718 0.077 1.046 0.124 0.069 0.010 0.14 0.020 0.215 0.031l0.4 0.056 0.043-0.401c0.053-0.492 0.083-0.986 0.083-1.497 0-3.398-1.231-6.495-3.239-8.881zM16.133 13.292l-0.144-0.29-0.311 0.088c-6.020 1.71-11.323 1.658-12.975 1.591l-0.376-0.015-0.029 0.375-0.002 0.026c-0.029 0.372-0.058 0.754-0.058 1.159 0 4.085 1.767 7.731 4.554 10.227l0.291 0.261 0.26-0.291c0.699-0.782 1.636-1.777 2.775-2.816l0.002-0.001c2.143-1.976 4.901-4.067 7.905-4.979l0.403-0.123-0.153-0.393c-0.672-1.723-1.396-3.325-2.142-4.82zM23.539 19.455l-0.004 0c-0.789 0.038-1.629 0.114-2.483 0.228l-0.464 0.062 0.145 0.445c0.721 2.22 1.317 4.571 1.703 7.017l0.097 0.616 0.511-0.356c2.487-1.732 4.368-4.305 5.244-7.326l0.129-0.445-0.46-0.052c-1.139-0.129-2.584-0.258-4.417-0.19zM19.125 20.38l-0.12-0.354-0.359 0.104c-2.639 0.768-5.4 2.759-7.492 4.679-1.011 0.92-1.827 1.793-2.482 2.508l-0.322 0.352 0.408 0.246c1.987 1.198 4.294 1.902 6.783 1.902 1.868 0 3.63-0.395 5.24-1.090l0.272-0.117-0.040-0.293c-0.378-2.789-1.045-5.448-1.888-7.937zM0.677 16.22c0-8.393 6.687-15.219 14.871-15.219s14.871 6.826 14.871 15.219c0 8.393-6.687 15.219-14.871 15.219s-14.871-6.826-14.871-15.219z"></path>
</symbol>
<symbol id="icon-figma" viewBox="0 0 21 32">
<path fill="#0acf83" style="fill: var(--color4, #0acf83)" d="M5.41 31.997c2.89 0 5.235-2.387 5.235-5.331v-5.331h-5.235c-2.89 0-5.235 2.387-5.235 5.331s2.344 5.331 5.235 5.331z"></path>
<path fill="#a259ff" style="fill: var(--color5, #a259ff)" d="M0.175 15.998c0-2.943 2.344-5.331 5.235-5.331h5.235v10.668h-5.235c-2.89-0.007-5.235-2.394-5.235-5.337z"></path>
<path fill="#f24e1e" style="fill: var(--color6, #f24e1e)" d="M0.175 5.331c0-2.943 2.344-5.331 5.235-5.331h5.235v10.668h-5.235c-2.89 0-5.235-2.394-5.235-5.337z"></path>
<path fill="#ff7262" style="fill: var(--color7, #ff7262)" d="M10.651 0h5.235c2.89 0 5.235 2.387 5.235 5.331s-2.344 5.331-5.235 5.331h-5.235v-10.661z"></path>
<path fill="#1abcfe" style="fill: var(--color8, #1abcfe)" d="M21.12 15.998c0 2.943-2.344 5.331-5.235 5.331s-5.235-2.387-5.235-5.331c0-2.943 2.344-5.331 5.235-5.331s5.235 2.387 5.235 5.331z"></path>
</symbol>
<symbol id="icon-instagram" viewBox="0 0 31 32">
<path stroke-linejoin="miter" stroke-linecap="butt" stroke-miterlimit="4" stroke-width="0.7805" d="M9.496 1.009h0.39v-0.008h12.413c4.655 0 8.466 3.89 8.466 8.673v13.092c0 4.783-3.811 8.673-8.459 8.673h-12.811c-4.656 0-8.473-3.884-8.473-8.658v-13.099c0-4.782 3.818-8.673 8.473-8.673zM2.59 9.689v13.1c0 3.892 3.065 7.037 6.906 7.037h12.811c3.827 0 6.891-3.147 6.891-7.052v-13.092c0-3.906-3.064-7.052-6.898-7.052h-12.804c-3.834 0-6.898 3.147-6.906 7.059zM24.509 6.621c0-0.46 0.354-0.81 0.784-0.81s0.784 0.35 0.784 0.81-0.354 0.81-0.784 0.81c-0.429 0-0.784-0.35-0.784-0.81zM8.074 16.224c0-4.414 3.531-8.013 7.828-8.013s7.828 3.598 7.828 8.013c0 4.414-3.531 8.013-7.828 8.013s-7.828-3.598-7.828-8.013zM22.161 16.224c0-3.538-2.779-6.392-6.26-6.392s-6.26 2.854-6.26 6.392 2.779 6.392 6.26 6.392c3.482 0 6.26-2.854 6.26-6.392z"></path>
</symbol>
<symbol id="icon-linkedin" viewBox="0 0 32 32">
<path stroke-linejoin="miter" stroke-linecap="butt" stroke-miterlimit="4" stroke-width="0.381" d="M26.882 0.655h-21.637c-2.472 0-4.483 2.006-4.483 4.471v21.579c0 2.465 2.011 4.471 4.483 4.471h21.637c2.472 0 4.483-2.006 4.483-4.471v-21.579c0-2.465-2.011-4.471-4.483-4.471zM29.572 26.705c0 1.479-1.207 2.683-2.69 2.683h-21.637c-1.483 0-2.69-1.203-2.69-2.683v-21.579c0-1.479 1.207-2.683 2.69-2.683h21.637c1.483 0 2.69 1.203 2.69 2.683v21.579z"></path>
<path d="M24.478 22.778c-1.095 0-2.181 0-3.285 0 0-0.053 0-0.102 0-0.151 0-1.779-0-3.557 0-5.336 0-0.379-0.028-0.752-0.123-1.122-0.393-1.523-2.089-1.434-2.763-0.712-0.339 0.363-0.561 0.773-0.57 1.279-0.002 0.121-0.009 0.241-0.009 0.362-0.001 1.841-0 3.682-0 5.523 0 0.050 0 0.099 0 0.157-1.099 0-2.186 0-3.279 0 0-3.395 0-6.786 0-10.183 1.092 0 2.178 0 3.277 0 0 0.46 0 0.913 0 1.366 0.009 0.004 0.017 0.008 0.026 0.011 0.023-0.032 0.047-0.063 0.070-0.095 0.329-0.456 0.706-0.861 1.208-1.134 0.56-0.306 1.165-0.408 1.795-0.39 0.682 0.020 1.329 0.173 1.912 0.54 0.747 0.47 1.203 1.159 1.47 1.984 0.208 0.643 0.276 1.307 0.277 1.979 0.002 1.934 0.001 3.869 0 5.803 0 0.038-0.003 0.076-0.006 0.119z"></path>
<path d="M12.445 22.783c-1.091 0-2.171 0-3.261 0 0-3.396 0-6.791 0-10.192 1.084 0 2.168 0 3.261 0 0 3.393 0 6.788 0 10.192z"></path>
<path d="M10.954 7.522c1.027-0.001 1.754 0.729 1.757 1.766 0.003 1.026-0.734 1.752-1.781 1.752-1.022 0.001-1.75-0.73-1.752-1.756s0.737-1.76 1.776-1.762z"></path>
</symbol>
<symbol id="icon-lr" viewBox="0 0 33 32">
<path fill="#000" style="fill: var(--color1, #000)" d="M1.547 1.368h30.086v29.265h-30.086v-29.265z"></path>
<path fill="#aad1eb" style="fill: var(--color9, #aad1eb)" d="M1.547 1.368h30.086v29.265h-30.086v-29.265zM0.179 32h32.821v-32h-32.821v32zM19.392 13.47c0-0.164 0-0.561-0.068-1.326 0-0.109 0.028-0.137 0.109-0.177 0.834-0.341 2.817-0.944 5.032-0.944 0.109 0 0.164 0.028 0.164 0.137v1.969c0 0.109-0.041 0.137-0.164 0.137-0.861-0.041-2.133 0.068-2.613 0.273v8.629c0 0.109-0.041 0.164-0.164 0.164h-2.145c-0.109 0-0.164-0.041-0.164-0.164v-8.697h0.013zM9.273 22.331c-0.164 0-0.205-0.068-0.205-0.205v-14.701c0-0.109 0.041-0.177 0.164-0.177h2.161c0.109 0 0.137 0.041 0.137 0.164v12.663h5.635c0.109 0 0.151 0.041 0.123 0.164l-0.341 1.942c-0.028 0.109-0.096 0.164-0.205 0.164h-7.469v-0.014z"></path>
</symbol>
<symbol id="icon-pr" viewBox="0 0 33 32">
<path fill="#000" style="fill: var(--color1, #000)" d="M1.544 1.364h30.008v29.19h-30.008v-29.19z"></path>
<path fill="#e579ff" style="fill: var(--color10, #e579ff)" d="M1.543 1.364h30.008v29.19h-30.008v-29.19zM0.179 31.917h32.736v-31.917h-32.736v31.917zM19.82 13.477c0-0.164 0-0.559-0.068-1.323 0-0.109 0.013-0.136 0.109-0.177 0.831-0.34 2.783-0.941 4.992-0.941 0.109 0 0.164 0.027 0.164 0.136v1.977c0 0.109-0.041 0.136-0.151 0.136-0.859-0.041-2.1 0.068-2.578 0.272v8.594c0 0.109-0.041 0.164-0.164 0.164h-2.141c-0.109 0-0.164-0.041-0.164-0.164l0.001-8.675zM11.091 14.718c0.314 0.027 0.559 0.027 1.105 0.027 1.596 0 3.097-0.559 3.097-2.728 0-1.732-1.065-2.606-2.891-2.606-0.546 0-1.063 0.027-1.309 0.041l-0.001 5.265zM8.677 7.474c0-0.096 0.027-0.164 0.136-0.164 0.873-0.041 2.155-0.068 3.505-0.068 3.778 0 5.429 2.073 5.429 4.734 0 3.465-2.51 4.951-5.593 4.951-0.519 0-0.695-0.027-1.065-0.027v5.238c0 0.109-0.041 0.164-0.164 0.164h-2.1c-0.109 0-0.164-0.041-0.164-0.164v-14.663h0.014z"></path>
</symbol>
<symbol id="icon-ps" viewBox="0 0 32 32">
<path fill="#000" style="fill: var(--color1, #000)" d="M1.335 1.359h29.363v29.071h-29.363v-29.071z"></path>
<path fill="#31c5f0" style="fill: var(--color11, #31c5f0)" d="M1.335 1.359h29.363v29.071h-29.363v-29.071zM0 31.789h32.026v-31.789h-32.026v31.789zM21.597 13.046c-1.053 0-1.412 0.542-1.412 0.993 0 0.49 0.237 0.83 1.656 1.574 2.092 1.032 2.747 2.025 2.747 3.476 0 2.175-1.63 3.345-3.832 3.345-1.162 0-2.163-0.242-2.734-0.581-0.096-0.039-0.109-0.111-0.109-0.216v-2.006c0-0.137 0.064-0.176 0.16-0.111 0.841 0.555 1.803 0.804 2.683 0.804 1.053 0 1.495-0.451 1.495-1.058 0-0.49-0.308-0.921-1.656-1.633-1.893-0.921-2.683-1.855-2.683-3.423 0-1.751 1.348-3.208 3.684-3.208 1.149 0 1.951 0.176 2.388 0.379 0.109 0.065 0.135 0.176 0.135 0.274v1.862c0 0.111-0.064 0.176-0.199 0.137-0.59-0.379-1.457-0.608-2.323-0.608zM10.121 14.66c0.308 0.026 0.546 0.026 1.078 0.026 1.56 0 3.029-0.555 3.029-2.718 0-1.725-1.053-2.594-2.83-2.594-0.533 0-1.040 0.026-1.284 0.039l0.006 5.246zM7.74 7.447c0-0.098 0.186-0.163 0.295-0.163 0.854-0.039 2.124-0.065 3.44-0.065 3.697 0 5.141 2.064 5.141 4.697 0 3.449-2.458 4.932-5.475 4.932-0.507 0-0.68-0.026-1.040-0.026v5.213c0 0.111-0.039 0.163-0.16 0.163h-2.041c-0.109 0-0.16-0.039-0.16-0.163v-14.588z"></path>
</symbol>
<symbol id="icon-sketch" viewBox="0 0 36 32">
<path fill="#ea6c00" style="fill: var(--color12, #ea6c00)" d="M7.354 11.484l10.444 20.441-17.554-20.441h7.11z"></path>
<path fill="#ea6c00" style="fill: var(--color12, #ea6c00)" d="M28.244 11.484l-10.444 20.441 17.554-20.441h-7.11z"></path>
<path fill="#fdad00" style="fill: var(--color13, #fdad00)" d="M7.353 11.484h20.887l-10.444 20.441-10.444-20.441z"></path>
<path fill="#fdd231" style="fill: var(--color14, #fdd231)" d="M17.797 0.156l-9.894 1.046-0.55 10.283 10.444-11.329z"></path>
<path fill="#fdd231" style="fill: var(--color14, #fdd231)" d="M17.797 0.156l9.894 1.046 0.55 10.283-10.444-11.329z"></path>
<path fill="#fdad00" style="fill: var(--color13, #fdad00)" d="M35.354 11.485l-7.66-10.283 0.55 10.283h7.11z"></path>
<path fill="#fdad00" style="fill: var(--color13, #fdad00)" d="M0.243 11.485l7.66-10.283-0.55 10.283h-7.11z"></path>
<path fill="#feeeb7" style="fill: var(--color15, #feeeb7)" d="M17.797 0.156l-10.444 11.329h20.887l-10.444-11.329z"></path>
</symbol>
<symbol id="icon-star-black" viewBox="0 0 34 32">
<path d="M15.206 1.375c0.48-1.472 2.563-1.472 3.043 0l2.802 8.599c0.215 0.659 0.829 1.104 1.521 1.104h9.057c1.551 0 2.195 1.986 0.939 2.896l-7.32 5.303c-0.562 0.408-0.798 1.131-0.582 1.791l2.798 8.587c0.48 1.473-1.205 2.7-2.46 1.791l-7.337-5.316c-0.56-0.406-1.317-0.406-1.878 0l-7.337 5.316c-1.255 0.909-2.94-0.318-2.46-1.791l2.798-8.587c0.215-0.66-0.020-1.384-0.583-1.791l-7.32-5.303c-1.256-0.91-0.612-2.896 0.939-2.896h9.057c0.693 0 1.307-0.446 1.521-1.104l2.802-8.599z"></path>
</symbol>
<symbol id="icon-star-grey" viewBox="0 0 35 32">
<path fill="#e5e5e5" style="fill: var(--color16, #e5e5e5)" d="M15.672 1.375c0.48-1.472 2.563-1.472 3.043 0l2.802 8.599c0.215 0.659 0.829 1.104 1.521 1.104h9.057c1.551 0 2.195 1.986 0.939 2.896l-7.32 5.303c-0.562 0.408-0.798 1.131-0.583 1.791l2.798 8.587c0.48 1.473-1.205 2.7-2.46 1.791l-7.337-5.316c-0.56-0.406-1.317-0.406-1.878 0l-7.337 5.316c-1.255 0.909-2.94-0.318-2.46-1.791l2.798-8.587c0.215-0.66-0.020-1.384-0.583-1.791l-7.32-5.303c-1.256-0.91-0.612-2.896 0.939-2.896h9.057c0.693 0 1.307-0.446 1.521-1.104l2.802-8.599z"></path>
</symbol>
<symbol id="icon-xd" viewBox="0 0 33 32">
<path fill="#e5e5e5" style="fill: var(--color16, #e5e5e5)" d="M3.121 7.913c0.009-0.033 0.056-0.033 0.065 0l0.043 0.149c0.005 0.018 0.023 0.028 0.041 0.024l0.151-0.038c0.033-0.008 0.056 0.032 0.033 0.056l-0.108 0.111c-0.013 0.013-0.013 0.034 0 0.047l0.108 0.111c0.024 0.024 0.001 0.065-0.033 0.056l-0.151-0.038c-0.018-0.004-0.036 0.006-0.041 0.024l-0.043 0.149c-0.009 0.033-0.056 0.033-0.065 0l-0.043-0.149c-0.005-0.018-0.023-0.028-0.041-0.024l-0.151 0.038c-0.033 0.008-0.056-0.032-0.033-0.056l0.108-0.111c0.013-0.013 0.013-0.034 0-0.047l-0.108-0.111c-0.024-0.024-0.001-0.065 0.033-0.056l0.151 0.038c0.018 0.004 0.036-0.006 0.041-0.024l0.043-0.149z"></path>
<path fill="#2e001e" style="fill: var(--color17, #2e001e)" d="M1.544 1.364h30.008v29.19h-30.008v-29.19z"></path>
<path fill="#ff2bc2" style="fill: var(--color18, #ff2bc2)" d="M0.179 0v31.917h32.736v-31.917h-32.736zM1.543 1.364h30.008v29.19h-30.008v-29.19z"></path>
<path fill="#ff2bc2" style="fill: var(--color18, #ff2bc2)" d="M23.953 13.409c-0.204-0.096-0.464-0.136-0.791-0.136-1.719 0-2.865 1.323-2.865 3.52 0 2.51 1.173 3.52 2.701 3.52 0.327 0 0.682-0.041 0.942-0.151v-6.753h0.013zM17.843 16.9c0-3.178 2.047-5.661 5.401-5.661 0.287 0 0.436 0 0.71 0.027v-3.546c0-0.081 0.068-0.136 0.136-0.136h2.196c0.109 0 0.136 0.041 0.136 0.109v12.467c0 0.368 0 0.831 0.068 1.337 0 0.096 0 0.109-0.082 0.151-1.146 0.546-2.346 0.791-3.492 0.791-2.959-0.001-5.073-1.828-5.073-5.539zM13.192 14.691l3.82 7.406c0.068 0.109 0.027 0.219-0.082 0.219h-2.374c-0.151 0-0.219-0.041-0.287-0.177-0.873-1.8-1.76-3.669-2.674-5.606h-0.027c-0.818 1.828-1.718 3.82-2.591 5.62-0.068 0.109-0.136 0.151-0.246 0.151h-2.263c-0.136 0-0.151-0.109-0.082-0.191l3.737-7.189-3.614-7.147c-0.082-0.109 0-0.204 0.096-0.204h2.346c0.136 0 0.204 0.027 0.246 0.151 0.859 1.814 1.732 3.601 2.551 5.429h0.027c0.791-1.8 1.664-3.614 2.496-5.401 0.068-0.109 0.109-0.177 0.246-0.177h2.196c0.109 0 0.151 0.082 0.082 0.204l-3.602 6.912z"></path>
</symbol>
<symbol id="icon-close" viewBox="0 0 32 32">
<path fill="#828282" style="fill: var(--color1, #828282)" d="M3.738 0l26.928 26.928-3.738 3.738-26.928-26.928 3.738-3.738z"></path>
<path fill="#828282" style="fill: var(--color1, #828282)" d="M1.157 27.209l26.928-26.928 3.738 3.738-26.928 26.928-3.738-3.738z"></path>
</symbol>
<symbol id="icon-menu" viewBox="0 0 53 32">
<path d="M0 0h52.8v6.14h-52.8v-6.14z"></path>
<path d="M0 12.278h52.8v6.14h-52.8v-6.14z"></path>
<path d="M0 24.559h52.8v6.14h-52.8v-6.14z"></path>
</symbol>
</defs>
</svg>
